    <svg xmlns="http://www.w3.org/2000/svg" viewBox="0 0 110 110" width="400" height="400">
        <path fill="#3776ab" d="
            M55.25 0
            c-27.62 0   -25.98 11.97   -25.98 11.97
            L29.3 24.4
            h26.43
            v3.78
            H18.6
            C3.54 28.18   0 40   0 40
            s0 11.82 3.54 21.82
            c3.54 10 14.73 11.82 14.73 11.82
            l10.43 0
            V63.2
            c0 -15.17 2.33 -16.1 12.33-16.1
            h25.13
            c12.33 0 13.1 -11.1 13.1-11.1
            V10.97
            S82.87 0 55.25 0z" />

        <path fill="#ffd43b" d="
            M54.75 95.5
            c27.62 0 25.98-11.97 25.98-11.97
            l-0.43-12.43
            H53.87
            v-3.78
            h37.13
            c15.06 0 18.6-11.82 18.6-11.82
            s0-11.82-3.54-21.82
            c-3.54-10-14.73-11.82-14.73-11.82
            l-10.43 0
            v10.43
            c0 15.17-2.33 16.1-12.33 16.1
            h-25.13
            c-12.33 0-13.1 11.1-13.1 11.1
            v24.66
            s-2.33 10.97 25.28 10.97z" />

        <circle cx="39.5" cy="14.6" r="3.6" fill="#fff" />

        <circle cx="70.5" cy="80.9" r="3.6" fill="#fff" />
    </svg>
